<?xml version="1.0" encoding="iso-8859-1"?>
<!-- Generator: Adobe Illustrator 19.0.0, SVG Export Plug-In . SVG Version: 6.00 Build 0)  -->
<svg version="1.1" id="Layer_1" xmlns="http://www.w3.org/2000/svg" xmlns:xlink="http://www.w3.org/1999/xlink" x="0px" y="0px"
	 viewBox="0 0 511.998 511.998" style="enable-background:new 0 0 511.998 511.998;" xml:space="preserve">
<path style="fill:#FFFFFF;" d="M279.517,48.352v415.297c104.198-11.718,185.445-100.372,185.445-207.649
	S383.715,60.07,279.517,48.352z"/>
<path style="fill:#B87FD9;" d="M255.999,0C114.84,0,0,114.84,0,255.999s114.84,255.999,255.999,255.999
	s255.999-114.84,255.999-255.999S397.16,0,255.999,0z M279.517,463.648V48.352C383.715,60.07,464.962,148.724,464.962,255.999
	S383.715,451.93,279.517,463.648z"/>
<path style="fill:#FFFFFF;" d="M279.517,48.352v415.297c104.198-11.718,185.445-100.372,185.445-207.648
	S383.715,60.07,279.517,48.352z"/>
<path style="fill:#933EC5;" d="M0,255.999c0,141.159,114.84,255.999,255.999,255.999V0C114.84,0,0,114.84,0,255.999z"/>
<g>
</g>
<g>
</g>
<g>
</g>
<g>
</g>
<g>
</g>
<g>
</g>
<g>
</g>
<g>
</g>
<g>
</g>
<g>
</g>
<g>
</g>
<g>
</g>
<g>
</g>
<g>
</g>
<g>
</g>
</svg>
